<svg height="512pt" viewBox="0 0 512 512" width="512pt" xmlns="http://www.w3.org/2000/svg"><path d="m512 256c0 141.386719-114.613281 256-256 256-38.171875 0-74.386719-8.347656-106.925781-23.332031-14.25-6.5625-27.804688-14.390625-40.5-23.355469-65.679688-46.339844-108.574219-122.816406-108.574219-209.3125 0-141.386719 114.613281-256 256-256s256 114.613281 256 256zm0 0" fill="#ffd833"/><path d="m382.117188 449.578125v29.246094c-37.21875 21.117187-80.257813 33.175781-126.121094 33.175781-27.03125 0-53.070313-4.191406-77.53125-11.953125-17.03125-5.402344-33.300782-12.550781-48.585938-21.222656v-29.246094c0-49.914063 38.441406-90.863281 87.351563-94.8125 2.570312-.210937 5.164062-.316406 7.785156-.316406h61.953125c7.324219 0 14.449219.816406 21.292969 2.382812 42.296875 9.675781 73.855469 47.53125 73.855469 92.746094zm0 0" fill="#dd104f"/><path d="m382.117188 449.578125v29.246094c-37.21875 21.117187-80.257813 33.175781-126.121094 33.175781-27.03125 0-53.070313-4.191406-77.53125-11.953125v-50.46875c0-52.539063 42.601562-95.128906 95.148437-95.128906h13.355469c52.558594 0 95.148438 42.589843 95.148438 95.128906zm0 0" fill="#f71c55"/><path d="m255.988281 393.394531-42.828125 23.800781-13.03125-60.601562 26.613282-15.675781" fill="#dd104f"/><path d="m255.988281 393.394531 42.832031 23.800781 13.027344-60.601562-26.613281-15.675781" fill="#dd104f"/><path d="m262.550781 376.300781v135.617188c-2.183593.050781-4.355469.082031-6.550781.082031s-4.378906-.03125-6.550781-.09375v-135.605469zm0 0" fill="#dd104f"/><path d="m162.886719 249.535156c0 15.710938-11.480469 28.742188-26.511719 31.160156-1.640625.265626-3.332031.402344-5.054688.402344-17.4375 0-31.566406-14.125-31.566406-31.5625s14.128906-31.566406 31.566406-31.566406c1.722657 0 3.414063.140625 5.054688.40625 15.03125 2.417969 26.511719 15.445312 26.511719 31.160156zm0 0" fill="#f6ba97"/><path d="m162.886719 249.535156c0 15.710938-11.480469 28.742188-26.511719 31.160156-2.730469-9.929687-4.1875-20.378906-4.1875-31.160156 0-10.785156 1.457031-21.234375 4.1875-31.160156 15.03125 2.417969 26.511719 15.445312 26.511719 31.160156zm0 0" fill="#eaa27f"/><path d="m142.601562 249.535156c0 6.230469-5.050781 11.28125-11.28125 11.28125-6.230468 0-11.28125-5.050781-11.28125-11.28125 0-6.230468 5.050782-11.28125 11.28125-11.28125 6.230469 0 11.28125 5.050782 11.28125 11.28125zm0 0" fill="#eaa27f"/><path d="m349.101562 249.535156c0 15.710938 11.476563 28.742188 26.507813 31.160156 1.644531.265626 3.332031.402344 5.058594.402344 17.4375 0 31.5625-14.125 31.5625-31.5625s-14.125-31.566406-31.5625-31.566406c-1.726563 0-3.414063.140625-5.058594.40625-15.03125 2.417969-26.507813 15.445312-26.507813 31.160156zm0 0" fill="#f6ba97"/><g fill="#eaa27f"><path d="m349.101562 249.535156c0 15.710938 11.476563 28.742188 26.507813 31.160156 2.730469-9.929687 4.191406-20.378906 4.191406-31.160156 0-10.785156-1.457031-21.234375-4.191406-31.160156-15.03125 2.417969-26.507813 15.445312-26.507813 31.160156zm0 0"/><path d="m391.949219 249.535156c0 6.230469-5.050781 11.28125-11.28125 11.28125s-11.28125-5.050781-11.28125-11.28125c0-6.230468 5.050781-11.28125 11.28125-11.28125s11.28125 5.050782 11.28125 11.28125zm0 0"/><path d="m373.4375 232.761719c0 58.441406-42.695312 106.925781-98.597656 115.921875-6.132813 1.011718-12.425782 1.515625-18.851563 1.515625-64.855469 0-117.433593-52.582031-117.433593-117.4375 0-8.714844.550781-53.988281 2.359374-62.160157 11.597657-52.664062 58.933594-55.285156 115.074219-55.285156 6.425781 0 12.71875.511719 18.851563 1.511719 46.226562 7.441406 83.425781 41.882813 94.90625 86.632813 2.414062 9.363281 3.691406 19.1875 3.691406 29.300781zm0 0"/><path d="m289.9375 317.800781v41.65625c0 15.25-10.054688 28.140625-23.90625 32.421875-3.167969.980469-6.546875 1.515625-10.042969 1.515625-18.746093 0-33.9375-15.195312-33.9375-33.9375v-41.65625zm0 0"/></g><path d="m289.9375 356.816406v2.640625c0 15.25-10.054688 28.140625-23.90625 32.421875-12.496094-3.84375-21.890625-14.707031-23.625-28.003906 2.265625.140625 4.546875.210938 6.835938.210938 6.421874 0 12.71875-.511719 18.847656-1.519532 7.558594-1.210937 14.859375-3.15625 21.847656-5.75zm0 0" fill="#f6ba97"/><path d="m373.4375 232.757812c0 58.441407-42.695312 106.925782-98.59375 115.925782-55.898438-9-98.59375-57.484375-98.59375-115.925782 0-35.988281 16.1875-68.199218 41.6875-89.746093 15.898438-13.445313 35.429688-22.722657 56.90625-26.183594 52.113281 8.386719 92.761719 51.109375 98.015625 104.21875.382813 3.851563.578125 7.765625.578125 11.710937zm0 0" fill="#f6ba97"/><path d="m369.746094 203.460938-9.632813 4.921874-17.785156 60.28125c-1.292969 4.390626-3.65625 8.296876-6.789063 11.429688-3.148437 3.125-7.066406 5.488281-11.453124 6.761719-2.488282.730469-5.003907 1.078125-7.480469 1.078125-.011719 0-.011719 0-.023438 0-11.054687 0-21.335937-6.875-25.265625-17.765625-1.546875-4.304688-4.730468-7.679688-8.703125-9.527344-2.171875-1.015625-4.578125-1.570313-7.085937-1.570313h-39.078125c-2.507813 0-4.910157.554688-7.074219 1.570313-.90625.417969-1.765625.90625-2.578125 1.484375-2.761719 1.941406-4.945313 4.710938-6.136719 8.042969-3.925781 10.890625-14.210937 17.765625-25.265625 17.765625-2.484375 0-5.003906-.347656-7.5-1.078125-8.789062-2.558594-15.664062-9.414063-18.246093-18.191407l-17.78125-60.28125-10.554688-1.011718c-1.808594 8.171875-2.757812 16.675781-2.757812 25.390625v25.046875c0 64.875 52.160156 118.300781 117.039062 118.511718 6.363281.019532 12.601562-.449218 18.671875-1.421874.1875-.03125.386719-.0625.574219-.09375 55.902344-8.996094 98.597656-57.480469 98.597656-115.921876v-26.121093c0-10.113281-1.277344-19.9375-3.691406-29.300781zm-138.601563 78.078124h49.710938c8.203125 0 14.851562 6.648438 14.851562 14.847657v1.648437c0 7.324219-1.871093 14.191406-5.152343 20.167969-6.394532 11.640625-24.105469 7.09375-24.105469-6.195313h-20.898438v.007813c0 13.28125-17.710937 17.828125-24.105469 6.1875-3.292968-5.976563-5.152343-12.84375-5.152343-20.15625v-1.660156c0-8.199219 6.648437-14.847657 14.851562-14.847657zm0 0" fill="#454a4c"/><path d="m255.996094 301.046875c-9.835938 0-19.667969-2.460937-28.632813-7.390625-2.53125-1.390625-3.453125-4.566406-2.0625-7.09375s4.566407-3.449219 7.09375-2.0625c14.777344 8.125 32.421875 8.125 47.199219 0 2.527344-1.390625 5.703125-.46875 7.09375 2.0625 1.390625 2.527344.46875 5.703125-2.0625 7.09375-8.960938 4.929688-18.796875 7.390625-28.628906 7.390625zm0 0" fill="#eaa27f"/><path d="m367.75 53.417969c28.332031 28.328125 28.332031 74.261719 0 102.59375-28.328125 28.328125-74.261719 28.328125-102.59375 0zm0 0" fill="#454a4c"/><path d="m265.15625 156.007812h-89.035156l-34.144532-6.789062c1.894532-37.992188 33.324219-67.785156 71.367188-67.640625l128.589844.480469 17 30.601562" fill="#454a4c"/><path d="m262.863281 81.761719c-35.578125 2.539062-64.132812 31.285156-65.953125 67.460937l-.332031 6.792969h-20.460937l-2.195313 14.585937h-33.007813l1.066407-21.378906c1.890625-38.003906 33.320312-67.785156 71.355469-67.648437zm0 0" fill="#2f373b"/><path d="m230.984375 225.921875c0 7.359375-5.964844 13.320313-13.324219 13.320313-7.355468 0-13.320312-5.960938-13.320312-13.320313s5.964844-13.324219 13.320312-13.324219c7.359375 0 13.324219 5.964844 13.324219 13.324219zm0 0" fill="#2f373b"/><path d="m307.652344 225.921875c0 7.359375-5.964844 13.320313-13.324219 13.320313-7.355469 0-13.320313-5.960938-13.320313-13.320313s5.964844-13.324219 13.320313-13.324219c7.359375 0 13.324219 5.964844 13.324219 13.324219zm0 0" fill="#2f373b"/><path d="m228.265625 223.570312c0 3.152344-2.554687 5.707032-5.707031 5.707032s-5.707032-2.554688-5.707032-5.707032c0-3.152343 2.554688-5.707031 5.707032-5.707031s5.707031 2.554688 5.707031 5.707031zm0 0" fill="#fff"/><path d="m305.589844 223.570312c0 3.152344-2.558594 5.707032-5.710938 5.707032s-5.707031-2.554688-5.707031-5.707032c0-3.152343 2.554687-5.707031 5.707031-5.707031s5.710938 2.554688 5.710938 5.707031zm0 0" fill="#fff"/><path d="m269.316406 256.851562h-26.644531c-3.175781 0-5.746094-2.570312-5.746094-5.746093s2.570313-5.746094 5.746094-5.746094h26.644531c3.175782 0 5.746094 2.570313 5.746094 5.746094 0 3.171875-2.570312 5.746093-5.746094 5.746093zm0 0" fill="#eaa27f"/><path d="m278.664062 374.113281c-1.265624.25-2.539062.480469-3.824218.691407-.1875.03125-.386719.0625-.574219.09375-6.070313.972656-12.300781 1.441406-18.664063 1.421874-64.886718-.210937-117.046874-53.636718-117.046874-118.515624v-50.695313l13.3125 1.273437 17.78125 60.28125c2.539062 8.597657 9.195312 15.359376 17.734374 18.035157 10.992188 44.050781 46.519532 78.597656 91.28125 87.414062zm0 0" fill="#2f373b"/><path d="m103.160156 378.734375c-1.878906-.488281-3.410156-2-3.820312-4.027344l-14.746094-73.066406c-.570312-2.828125 1.261719-5.582031 4.089844-6.152344 2.828125-.570312 5.582031 1.257813 6.152344 4.085938l14.746093 73.066406c.574219 2.828125-1.257812 5.582031-4.085937 6.152344-.800782.164062-1.59375.132812-2.335938-.058594zm0 0" fill="#f2efea"/><path d="m149.378906 488.5-.304687.167969c-14.25-6.5625-27.804688-14.390625-40.5-23.355469l-12.902344-91.03125c-.125-.917969-.1875-1.828125-.1875-2.738281 0-9.476563 6.957031-17.75 16.613281-19.121094 10.574219-1.492187 20.355469 5.851563 21.859375 16.425781zm0 0" fill="#673389"/><path d="m114.546875 300.707031c-3.289063 8.386719-10.316406 15.246094-19.789063 17.894531-2.234374.628907-4.476562 1.25-6.710937 1.878907-10.972656-39.183594-31.671875-74.96875-60.167969-104.015625 1.664063-1.628906 3.324219-3.261719 4.984375-4.882813 6.898438-6.765625 16.164063-9.464843 24.9375-8.289062 7.492188 1 14.628907 4.816406 19.65625 11.351562 15.042969 19.539063 27.445313 40.992188 36.882813 63.777344 3.085937 7.464844 2.917968 15.386719.207031 22.285156zm0 0" fill="#f2efea"/><path d="m114.546875 300.707031c-12.597656-35.765625-31.847656-68.820312-56.746094-97.414062 7.488281 1 14.628907 4.816406 19.652344 11.351562 15.046875 19.539063 27.449219 40.992188 36.886719 63.777344 3.085937 7.464844 2.917968 15.386719.207031 22.285156zm0 0" fill="#d8d4ce"/><path d="m145.242188 432.378906v29.75c0 8.011719-3.542969 15.210938-9.15625 20.089844-4.648438-2.453125-9.226563-5.066406-13.695313-7.8125-10.691406-6.554688-20.867187-13.867188-30.441406-21.871094v-20.15625c0-7.355468 2.988281-14.011718 7.808593-18.839844 2.515626-2.527343 5.546876-4.546874 8.910157-5.894531 3.074219-1.230469 6.417969-1.910156 9.929687-1.910156 14.710938 0 26.644532 11.933594 26.644532 26.644531zm0 0" fill="#eaa27f"/><path d="m125.386719 432.378906v29.75c0 4.429688-1.085938 8.609375-2.996094 12.277344-10.691406-6.554688-20.867187-13.867188-30.441406-21.871094v-20.15625c0-7.355468 2.988281-14.011718 7.808593-18.839844 2.515626-2.527343 5.546876-4.546874 8.910157-5.894531 9.800781 3.941407 16.71875 13.53125 16.71875 24.734375zm0 0" fill="#f6ba97"/></svg>